<svg xmlns="http://www.w3.org/2000/svg" viewBox="0 0 100 100">
  <rect width="50" height="100" fill="#FFD700"/>
  <rect x="50" width="50" height="100" fill="#FFF"/>
  <g transform="translate(75,50) scale(0.4)">
    <path d="M-12-32c-16 0-16 14-16 14v39h56v-39c0 0 0-14-16-14zm-14 13h2v-2h2v-2h2v-2h2v2h2v2h2v-2h2v-2h2v-2h2v2h2v2h2v2h2v2h2v-2h2v-2h2v2h2v2h2v2h2v2h2v-2h2v-2h2v2h2v2h2v2h2v2h2v-2h2v-2h2v2h2v2h2v2h2v2h2v-2h2v-2h2v2h2v2h2v2h2v2h2v-2h2v-2h2v2h2v2h2v2h-52z" fill="#FFF"/>
    <path d="M0-45l-5 5-5-5-5 5-5-5-5 5-5-5-5 5-5-5-5 5-5-5-5 5-5-5v10l5 5-5 5v10l5 5-5 5v10l5 5-5 5v10h80v-10l-5-5v-10l-5-5v-10l-5-5v-10l-5-5v-10l-5-5-5 5-5-5-5 5-5-5-5 5z" fill="#FFD700"/>
    <path d="M-15-15h30v30h-30z" fill="#D4AF37"/>
    <path d="M-10-10h20v20h-20z" fill="#FFF"/>
    <path d="M0-5h5v10h-10v-10zM-5 0h10v5h-10z" fill="#D4AF37"/>
    <g transform="translate(0, -35)">
      <path d="M0,0 a15,15 0 0,1 0,30 a15,15 0 0,1 0,-30" fill="#FFF"/>
      <path d="M0,0 a10,10 0 0,1 0,20 a10,10 0 0,1 0,-20" fill="#FFD700"/>
      <path d="M0,5 l-2.5-2.5 l2.5-2.5 l2.5,2.5z" fill="#FFF"/>
    </g>
  </g>
</svg>
